# xmcd
#
# Track frame offsets:
#	150
#	15435
#	27752
#	40178
#	51999
#	66486
#	79075
#	93583
#	107347
#	120489
#	134001
#	143874
#	156154
#	169173
#	180571
#	194026
#	205720
#	218261
#	229495
#	242612
#	256013
#	269438
#
# Disc length: 3765 seconds
#
# Revision: 1
# Processed by: cddbd v1.5.2PL0 Copyright (c) Steve Scherf et al.
# Submitted via: audiograbber 1.83.01
#
DISCID=330eb316
DTITLE=Merle Haggard - it's not love but it's not bad
DYEAR=1900
DGENRE=Country
TTITLE0=It's not love but it's not bad
TTITLE1=Goodbye comes hard for me
TTITLE2=My woman keeps lovin her man
TTITLE3=New york city blues
TTITLE4=I wonder what she'll think about me leaving
TTITLE5=The conversion of ronnie jones
TTITLE6=A shoulder to cry on
TTITLE7=I'd never told on you
TTITLE8=Dad's old fiddle
TTITLE9=Somewhere to come when it rains
TTITLE10=I wonder where i'll find at tonight
TTITLE11=If we make it through december
TTITLE12=Love and honor
TTITLE13=To each his own
TTITLE14=You're the only girl in the game
TTITLE15=I'm an old old man
TTITLE16=Come on into my arms
TTITLE17=Better off when i was hungry
TTITLE18=I'll break out again tonight
TTITLE19=This cold war
TTITLE20=Uncle lem
TTITLE21=There's just one way
EXTD=
EXTT0=
EXTT1=
EXTT2=
EXTT3=
EXTT4=
EXTT5=
EXTT6=
EXTT7=
EXTT8=
EXTT9=
EXTT10=
EXTT11=
EXTT12=
EXTT13=
EXTT14=
EXTT15=
EXTT16=
EXTT17=
EXTT18=
EXTT19=
EXTT20=
EXTT21=
PLAYORDER=
